PathFileType	4	(X/Y/Z)	C:\Users\Basilio\Documents\Thesis Gigler\squatting_fais\c3dfiles\058\SLS_back_pre3\markers_experimental.trc
DataRate	CameraRate	NumFrames	NumMarkers	Units	OrigDataRate	OrigDataStartFrame	OrigNumFrames
200.000000	200.000000	4	59	mm	200.000000	751	1203
Frame#	Time	FHD			LBHD			RBHD			C7			T10			CLAV			LSHO			LUUPA			LMUPA			LDUPA			LLEP			LMEP			LUL			LRFIN			RSHO			RUPA1			RMUPA			RDUPA			RLEP			RMEP			RUL			RUFIN			LASI			RASI			USACR			LSACR			RSACR			LTHI1			LTHI2			LTHI3			LTHI4			LLFC			LMFC			LTIB1			LTIB2			LTIB3			LTIB4			LLMAL			LMMAL			LHEE			LMT1			LMT2			LMT5			RTHI			RTHI2			RTHI3			RTHI4			RLFC			RMFC			RTIB1			RTIB2			RTIB3			RTIB4			RLMAL			RMMAL			RHEE			RMT1			RMT2			RMT5			
		X1	Y1	Z1	X2	Y2	Z2	X3	Y3	Z3	X4	Y4	Z4	X5	Y5	Z5	X6	Y6	Z6	X7	Y7	Z7	X8	Y8	Z8	X9	Y9	Z9	X10	Y10	Z10	X11	Y11	Z11	X12	Y12	Z12	X13	Y13	Z13	X14	Y14	Z14	X15	Y15	Z15	X16	Y16	Z16	X17	Y17	Z17	X18	Y18	Z18	X19	Y19	Z19	X20	Y20	Z20	X21	Y21	Z21	X22	Y22	Z22	X23	Y23	Z23	X24	Y24	Z24	X25	Y25	Z25	X26	Y26	Z26	X27	Y27	Z27	X28	Y28	Z28	X29	Y29	Z29	X30	Y30	Z30	X31	Y31	Z31	X32	Y32	Z32	X33	Y33	Z33	X34	Y34	Z34	X35	Y35	Z35	X36	Y36	Z36	X37	Y37	Z37	X38	Y38	Z38	X39	Y39	Z39	X40	Y40	Z40	X41	Y41	Z41	X42	Y42	Z42	X43	Y43	Z43	X44	Y44	Z44	X45	Y45	Z45	X46	Y46	Z46	X47	Y47	Z47	X48	Y48	Z48	X49	Y49	Z49	X50	Y50	Z50	X51	Y51	Z51	X52	Y52	Z52	X53	Y53	Z53	X54	Y54	Z54	X55	Y55	Z55	X56	Y56	Z56	X57	Y57	Z57	X58	Y58	Z58	X59	Y59	Z59	

752	3.755	-192.7455291748047	1674.703735351563	-633.0093383789064	-347.1282653808594	1626.960571289063	-713.9155883789064	-175.7973022460938	1684.318237304688	-775.565368652344	-367.3153076171876	1481.577758789063	-726.7467041015626	-438.0994873046876	1192.174682617188	-736.6121215820314	-215.9380493164063	1414.267700195313	-709.0321655273439	-223.0594482421876	1473.231567382813	-859.0259399414065	-73.34982299804689	1415.472900390625	-969.4353027343752	-49.80593490600587	1452.027587890625	-942.6704101562502	-4.0149245262146	1416.990356445313	-960.3220214843752	71.76194763183595	1422.401977539063	-942.5935668945315	70.70289611816408	1365.509643554688	-905.4757080078127	336.9058227539063	1469.619018554688	-900.8261718750002	430.6848449707032	1471.262329101563	-817.101013183594	-242.8759307861329	1472.496215820313	-560.7878417968751	-93.07159423828126	1388.220092773438	-450.9802551269532	-70.35434722900392	1426.525634765625	-475.0963134765626	-24.0998764038086	1397.205810546875	-452.1928710937501	44.09155273437501	1390.631103515625	-460.0722961425782	51.66430664062501	1331.040893554688	-509.870819091797	311.5969848632813	1442.443115234375	-472.1626586914064	401.0170288085939	1463.631225585938	-541.5512084960939	-309.7170715332032	948.610290527344	-860.2901611328127	-315.3104553222657	959.8018798828127	-622.8330688476564	-480.2606201171876	1082.2275390625	-740.3750610351564	-493.3468017578126	1051.48974609375	-767.4513549804689	-493.6038513183595	1053.344970703125	-709.2379760742189	-320.8021545410157	690.8599853515626	-947.174255371094	-276.0553283691407	617.2880859375001	-946.2574462890627	-234.9601745605469	621.8953247070314	-916.7547607421877	-297.1764831542969	559.8582153320314	-943.3521728515627	-303.9190979003907	483.4459228515626	-930.2966918945315	-287.7032775878907	460.4524841308595	-801.9696044921877	-386.4909667968751	385.0337219238282	-897.2880859375002	-444.3247985839845	438.2902221679689	-935.423522949219	-440.6771240234376	395.5161743164064	-927.308288574219	-513.9991455078126	366.6116333007813	-894.2839965820315	-715.3674926757814	393.3702087402345	-888.7794189453127	-689.7395629882814	348.8983154296876	-810.3605957031252	-700.5637817382814	447.1545410156251	-825.1668701171877	-810.5236816406252	256.6336364746094	-807.7708129882815	-824.2139892578127	257.2706909179688	-853.0656738281252	-840.2735595703127	314.6988220214844	-893.5300903320315	-361.7211303710938	771.0386352539065	-552.6052856445314	-303.1716308593751	737.6522216796876	-555.3944702148439	-273.5885620117188	750.2765502929689	-559.1485595703126	-295.0242919921876	656.9411010742189	-578.4814453125001	-224.6040039062501	504.8315429687501	-610.3353881835939	-198.7923126220704	513.1627807617189	-739.7976074218751	-226.1112518310547	323.1813659667969	-720.2941894531251	-283.8341674804688	251.4599609375001	-658.9505615234376	-254.2964019775391	240.5591278076172	-695.4719848632814	-279.2357482910157	206.6587524414063	-734.7161865234376	-366.3424377441407	113.270622253418	-698.3173217773439	-335.1340637207032	139.7731170654297	-784.7008056640627	-437.5090942382814	101.948486328125	-764.4931030273439	-228.8542175292969	59.90712356567384	-774.7254638671877	-224.7967834472657	57.66665649414064	-722.2019042968751	-273.5510864257813	26.00734519958497	-671.8382568359376	
753	3.76	-193.2054443359376	1675.678466796875	-632.9243164062501	-347.4335327148438	1628.281494140625	-713.9725341796876	-175.9281921386719	1685.460083007813	-775.503112792969	-367.4426269531251	1482.815551757813	-726.8374023437501	-438.0319213867189	1193.227294921875	-736.6156005859376	-216.0775909423829	1415.493530273438	-709.1063842773439	-223.176010131836	1474.314208984375	-859.1494750976565	-73.20053100585939	1416.419799804688	-969.4547119140627	-50.01300048828126	1453.142333984375	-942.6986083984377	-4.080294609069825	1418.19384765625	-960.266296386719	71.45738220214845	1423.568725585938	-942.359313964844	77.42623901367189	1366.718017578125	-911.1025390625002	336.8094482421876	1470.858276367188	-900.7938232421877	430.750946044922	1472.577880859375	-817.0767211914065	-243.2319488525391	1473.881103515625	-561.2346191406251	-93.43057250976564	1389.041015625	-451.0897521972657	-70.4205780029297	1427.79296875	-474.9613647460939	-24.23092842102051	1398.544555664063	-452.1763305664064	43.80694961547852	1391.698852539063	-459.9857482910157	51.54244613647462	1332.091674804688	-509.7258605957032	311.3309326171876	1443.423583984375	-472.1323852539064	400.983123779297	1464.726684570313	-541.2053833007814	-309.3009643554688	949.948425292969	-860.3387451171877	-315.1403503417969	960.7487792968752	-622.9154052734376	-480.1291503906251	1083.257446289063	-740.3901977539064	-493.2464294433595	1052.78515625	-767.5121459960939	-493.4102172851564	1054.276245117188	-709.3217773437501	-320.7456970214844	691.9124755859376	-947.4236450195315	-275.9329833984376	618.3975219726564	-946.5176391601565	-234.5919342041016	622.8437500000001	-917.167419433594	-297.1005249023438	560.9047851562501	-943.5122680664065	-304.2011718750001	484.7642211914064	-930.0991821289065	-287.7557678222657	461.5313110351564	-802.0972900390627	-386.714813232422	386.1141052246095	-896.9564208984377	-444.1049804687501	439.2097473144532	-935.7634887695315	-440.4314880371095	396.8569335937501	-927.4886474609377	-513.7772827148439	367.7384338378907	-894.2896728515627	-715.1642456054689	394.3204040527345	-888.908630371094	-689.6551513671876	350.2878723144532	-810.4597778320315	-700.3007812500001	448.0546875000001	-825.211120605469	-810.4545898437502	258.0319213867188	-807.8091430664065	-824.5798950195315	259.0737609863282	-852.9707031250002	-840.992370605469	316.3800659179688	-893.3088378906252	-361.8233337402344	771.6077270507815	-552.7117919921876	-303.4866943359376	738.2584838867189	-555.6890869140626	-273.7074279785157	750.6501464843751	-559.3334960937501	-295.6502380371094	657.3458251953126	-578.4039306640626	-225.4206695556641	505.2590942382814	-610.3840942382814	-199.6873474121094	513.3624877929689	-739.8186035156251	-226.5498962402344	323.3875427246094	-720.2803955078126	-284.3482971191407	251.6569519042969	-658.8770751953126	-254.8157348632813	240.7380065917969	-695.4662475585939	-279.3487548828126	206.8557891845704	-734.7172851562501	-366.3811950683594	113.2535400390625	-698.3307495117189	-335.2039489746094	139.8158416748047	-784.774108886719	-437.5018310546876	101.9638748168946	-764.4959106445314	-228.8813476562501	59.94778060913087	-774.696472167969	-224.7952880859376	57.66460037231447	-722.1885986328126	-273.5195922851563	26.05635070800782	-671.8806152343751	
754	3.765	-193.1541442871094	1676.877563476563	-633.0368041992189	-347.3659973144532	1629.314575195313	-714.1896972656251	-175.9903259277344	1686.630615234375	-775.545104980469	-367.5823059082032	1484.104736328125	-727.0138549804689	-438.0055236816407	1194.394165039063	-736.8226318359376	-216.3301086425782	1416.7451171875	-709.1899414062501	-223.3644104003907	1475.698974609375	-859.287536621094	-73.28077697753908	1417.653076171875	-969.415466308594	-49.94126129150392	1454.301025390625	-942.766052246094	-3.972174167633058	1419.223388671875	-960.301452636719	71.55568695068361	1424.757934570313	-942.533874511719	70.76717376708986	1367.878051757813	-905.4040527343752	336.7542419433594	1471.902465820313	-900.6926879882815	430.403289794922	1473.805419921875	-817.0567626953127	-243.5555572509766	1475.018676757813	-561.0423583984376	-93.66774749755861	1390.696655273438	-450.8946228027345	-70.65845489501955	1429.155151367188	-475.1122131347657	-24.57586288452149	1399.73876953125	-452.1653747558595	43.82725143432618	1393.109985351563	-460.0441284179689	51.28310775756837	1333.437255859375	-509.8450317382814	311.0526123046876	1444.52197265625	-472.2823486328126	400.6903686523439	1465.522705078125	-541.4003295898439	-309.1089477539063	951.1779785156252	-860.5665283203127	-314.9680175781251	961.5555419921877	-623.1378173828126	-479.9869384765626	1084.095092773438	-740.4545898437501	-493.010711669922	1053.810913085938	-767.7354736328126	-493.2559814453126	1055.326538085938	-709.4593505859376	-320.4130554199219	693.0350341796876	-947.5686645507815	-275.7865600585938	619.5496215820314	-946.7244873046877	-234.4889068603516	624.1066284179689	-917.2503662109377	-296.9144287109376	562.1054077148439	-943.8737792968752	-303.6968994140626	485.6069641113282	-930.809265136719	-287.5683288574219	462.5986633300782	-802.455505371094	-386.2955322265626	387.4263305664064	-897.5599365234377	-443.968963623047	440.3206481933595	-935.9807739257815	-440.0310058593751	397.7362670898439	-927.6187133789065	-513.4238891601564	368.7778930664063	-894.677185058594	-714.8721313476564	395.5379638671876	-889.127380371094	-689.5899658203126	351.0196838378907	-810.5884399414065	-700.0595092773439	449.1838684082032	-825.3551025390627	-810.3461914062502	259.0754394531251	-807.7972412109377	-824.4191894531252	260.0151367187501	-853.105163574219	-840.741149902344	317.5464782714844	-893.5640258789065	-361.9883728027344	772.3082275390627	-552.8810424804689	-303.2835083007813	739.1242065429689	-555.9964599609376	-273.9226989746094	751.4294433593751	-559.5285644531251	-296.1388854980469	658.2341308593751	-578.6420288085939	-226.0498199462891	505.6003723144532	-610.4512329101564	-200.4312896728516	513.7187500000001	-739.9136962890626	-227.0043487548829	323.6273803710938	-720.3040161132814	-284.6422119140626	251.9413299560547	-658.8956909179689	-254.9659423828126	240.9605865478516	-695.5645751953126	-279.5593261718751	207.0630035400391	-734.7049560546876	-366.4006652832032	113.2462921142578	-698.3285522460939	-335.3020629882813	139.7947845458985	-784.8153076171877	-437.4997863769532	101.9122619628907	-764.5656738281251	-228.9009704589844	59.91324996948244	-774.7103271484377	-224.7804412841797	57.6774139404297	-722.2163696289064	-273.5079956054688	26.06150817871094	-671.8635253906251	
755	3.77	-193.4368133544922	1678.091674804688	-632.8897705078126	-347.5292358398438	1630.852416992188	-714.3508911132814	-176.0652008056641	1687.9072265625	-775.4871826171877	-367.7079162597657	1485.31982421875	-727.1312255859376	-437.8978881835939	1195.469604492188	-736.7815551757814	-216.4610290527344	1418.014526367188	-709.2633666992189	-223.3127746582032	1476.892456054688	-859.362976074219	-73.4254837036133	1418.667846679688	-969.453063964844	-50.11951446533205	1455.37744140625	-942.7754516601565	-4.285475730895997	1420.466918945313	-960.2524414062502	71.25520324707033	1425.99365234375	-942.319030761719	70.55886077880861	1369.246826171875	-905.343933105469	336.6451110839844	1473.081787109375	-900.7001953125002	430.8430175781251	1474.958129882813	-816.8450927734377	-243.4138336181641	1476.2529296875	-561.1519775390626	-93.63392639160158	1391.7880859375	-451.0630493164064	-70.77111816406251	1430.126708984375	-475.1159667968751	-24.75280189514161	1400.726684570313	-452.163055419922	43.62116241455079	1394.305419921875	-460.0466308593751	51.28486251831056	1334.551025390625	-509.7792358398439	310.9531250000001	1445.88818359375	-472.1351623535157	400.7479553222657	1466.725830078125	-541.4880981445314	-309.1268615722657	952.3110961914065	-860.7033691406252	-314.9929199218751	962.9998779296877	-623.0251464843751	-479.8371582031251	1085.177612304688	-740.5285644531251	-492.9399719238282	1054.859375	-767.8202514648439	-493.0855712890626	1056.413452148438	-709.6137695312501	-320.2868957519532	694.2074584960939	-947.8565673828127	-275.3616943359376	620.7927856445314	-946.146667480469	-234.3572692871094	625.1890258789064	-917.535339355469	-296.7721557617188	563.0923461914064	-944.0086059570315	-304.2128601074219	487.2270812988282	-930.8444824218752	-287.4008178710938	463.7158203125001	-802.738220214844	-386.563934326172	388.501922607422	-897.520446777344	-443.6294250488282	441.0384216308595	-936.107116699219	-439.631805419922	398.8883056640626	-927.7195434570315	-513.2269287109376	369.7642517089844	-894.7521972656252	-714.8614501953126	396.4763488769532	-889.1495361328127	-689.5794677734376	352.1510314941407	-810.7523193359377	-700.0801391601564	450.2583312988282	-825.3889770507815	-810.2159423828127	260.2098083496094	-807.9263305664065	-824.425720214844	260.9825439453126	-853.2447509765627	-840.8250122070315	318.7582397460938	-893.5556640625002	-362.0873718261719	773.6170043945315	-552.9981689453126	-303.9276733398438	739.6079101562501	-555.9024658203126	-274.1046752929688	752.2595825195314	-559.6912231445314	-296.7386474609376	658.9839477539064	-578.8370361328126	-226.7241821289063	506.0281066894532	-610.4682006835939	-201.2630004882813	514.1217041015626	-739.9472656250001	-227.5191192626954	323.8093261718751	-720.3854980468751	-284.8025817871094	252.1158599853516	-658.9274291992189	-255.5105743408204	240.9395294189454	-695.5939331054689	-280.0622253417969	207.0907287597657	-734.7192382812501	-366.4345703125001	113.2525177001953	-698.3446044921876	-335.4354248046876	139.8605499267578	-784.9923095703127	-437.5291137695314	101.9182052612305	-764.5169677734376	-228.8498687744141	59.91176605224611	-774.7120361328127	-224.7897033691407	57.68470764160158	-722.2100219726564	-273.5068054199219	26.11006546020509	-671.8920898437501	
